<svg width="25" height="24" viewBox="0 0 25 24" fill="none" xmlns="http://www.w3.org/2000/svg">
<g clip-path="url(#clip0_394_14083)">
<path d="M11.3598 4.00001H4.13085C3.58307 4.00001 3.05772 4.21073 2.67038 4.5858C2.28304 4.96087 2.06543 5.46958 2.06543 6.00001V20C2.06543 20.5304 2.28304 21.0392 2.67038 21.4142C3.05772 21.7893 3.58307 22 4.13085 22H18.5888C19.1366 22 19.6619 21.7893 20.0493 21.4142C20.4366 21.0392 20.6542 20.5304 20.6542 20V13M19.1052 2.50001C19.516 2.10219 20.0732 1.87869 20.6542 1.87869C21.2352 1.87869 21.7925 2.10219 22.2033 2.50001C22.6141 2.89784 22.8449 3.4374 22.8449 4.00001C22.8449 4.56262 22.6141 5.10219 22.2033 5.50001L12.3925 15L8.2617 16L9.29441 12L19.1052 2.50001Z" stroke="#1E1E1E" stroke-width="2.5" stroke-linecap="round" stroke-linejoin="round"/>
</g>
<defs>
<clipPath id="clip0_394_14083">
<rect width="24.7851" height="24" fill="white"/>
</clipPath>
</defs>
</svg>
